REM DIRINDEX 1\2,1\3,1\4,1\5
REM DIRNAME cjc005,folder01,folder02,folder03,folder04
TITLE ""
FILE "P1Q_t_0202-0211.mp3" MP3
  TRACK 01 AUDIO
    TITLE "3:cjc005_1507"
    INDEX 01 00:00:00
  TRACK 02 AUDIO
    TITLE "0:"
    INDEX 01 00:01:26
  TRACK 03 AUDIO
    TITLE "4:cjc005_1508"
    INDEX 01 00:01:44
  TRACK 04 AUDIO
    TITLE "0:"
    INDEX 01 00:02:73
  TRACK 05 AUDIO
    TITLE "5:cjc005_1509"
    INDEX 01 00:03:17
  TRACK 06 AUDIO
    TITLE "0:"
    INDEX 01 00:08:58
  TRACK 07 AUDIO
    TITLE "3:cjc005_1510"
    INDEX 01 00:09:36
  TRACK 08 AUDIO
    TITLE "0:"
    INDEX 01 00:10:68
  TRACK 09 AUDIO
    TITLE "4:cjc005_1511"
    INDEX 01 00:11:23
  TRACK 10 AUDIO
    TITLE "0:"
    INDEX 01 00:13:06
  TRACK 11 AUDIO
    TITLE "5:cjc005_1512"
    INDEX 01 00:13:35
  TRACK 12 AUDIO
    TITLE "0:"
    INDEX 01 00:17:72
  TRACK 13 AUDIO
    TITLE "3:cjc005_1513"
    INDEX 01 00:18:42
  TRACK 14 AUDIO
    TITLE "0:"
    INDEX 01 00:19:52
  TRACK 15 AUDIO
    TITLE "4:cjc005_1514"
    INDEX 01 00:20:04
  TRACK 16 AUDIO
    TITLE "0:"
    INDEX 01 00:21:13
  TRACK 17 AUDIO
    TITLE "5:cjc005_1515"
    INDEX 01 00:21:37
  TRACK 18 AUDIO
    TITLE "0:"
    INDEX 01 00:24:69
  TRACK 19 AUDIO
    TITLE "3:cjc005_1516"
    INDEX 01 00:25:52
  TRACK 20 AUDIO
    TITLE "0:"
    INDEX 01 00:27:16
  TRACK 21 AUDIO
    TITLE "4:cjc005_1517"
    INDEX 01 00:27:43
  TRACK 22 AUDIO
    TITLE "0:"
    INDEX 01 00:29:33
  TRACK 23 AUDIO
    TITLE "5:cjc005_1518"
    INDEX 01 00:29:52
  TRACK 24 AUDIO
    TITLE "0:"
    INDEX 01 00:34:53
  TRACK 25 AUDIO
    TITLE "3:cjc005_1519"
    INDEX 01 00:35:33
  TRACK 26 AUDIO
    TITLE "0:"
    INDEX 01 00:36:60
  TRACK 27 AUDIO
    TITLE "4:cjc005_1520"
    INDEX 01 00:37:10
  TRACK 28 AUDIO
    TITLE "0:"
    INDEX 01 00:38:43
  TRACK 29 AUDIO
    TITLE "5:cjc005_1521"
    INDEX 01 00:38:65
  TRACK 30 AUDIO
    TITLE "0:"
    INDEX 01 00:43:19
  TRACK 31 AUDIO
    TITLE "3:cjc005_1522"
    INDEX 01 00:43:70
  TRACK 32 AUDIO
    TITLE "0:"
    INDEX 01 00:45:16
  TRACK 33 AUDIO
    TITLE "4:cjc005_1523"
    INDEX 01 00:45:35
  TRACK 34 AUDIO
    TITLE "0:"
    INDEX 01 00:46:58
  TRACK 35 AUDIO
    TITLE "5:cjc005_1524"
    INDEX 01 00:47:05
  TRACK 36 AUDIO
    TITLE "0:"
    INDEX 01 00:52:16
  TRACK 37 AUDIO
    TITLE "3:cjc005_1525"
    INDEX 01 00:52:65
  TRACK 38 AUDIO
    TITLE "0:"
    INDEX 01 00:54:19
  TRACK 39 AUDIO
    TITLE "4:cjc005_1526"
    INDEX 01 00:54:40
  TRACK 40 AUDIO
    TITLE "0:"
    INDEX 01 00:55:40
  TRACK 41 AUDIO
    TITLE "5:cjc005_1527"
    INDEX 01 00:55:61
  TRACK 42 AUDIO
    TITLE "0:"
    INDEX 01 01:01:19
  TRACK 43 AUDIO
    TITLE "3:cjc005_1528"
    INDEX 01 01:01:64
  TRACK 44 AUDIO
    TITLE "0:"
    INDEX 01 01:03:22
  TRACK 45 AUDIO
    TITLE "4:cjc005_1529"
    INDEX 01 01:03:45
  TRACK 46 AUDIO
    TITLE "0:"
    INDEX 01 01:04:58
  TRACK 47 AUDIO
    TITLE "5:cjc005_1530"
    INDEX 01 01:05:07
  TRACK 48 AUDIO
    TITLE "0:"
    INDEX 01 01:08:64
  TRACK 49 AUDIO
    TITLE "3:cjc005_1531"
    INDEX 01 01:09:38
  TRACK 50 AUDIO
    TITLE "0:"
    INDEX 01 01:10:49
  TRACK 51 AUDIO
    TITLE "4:cjc005_1532"
    INDEX 01 01:11:00
  TRACK 52 AUDIO
    TITLE "0:"
    INDEX 01 01:12:01
  TRACK 53 AUDIO
    TITLE "5:cjc005_1533"
    INDEX 01 01:12:24
  TRACK 54 AUDIO
    TITLE "0:"
    INDEX 01 01:16:34
  TRACK 55 AUDIO
    TITLE "3:cjc005_1534"
    INDEX 01 01:17:39
  TRACK 56 AUDIO
    TITLE "0:"
    INDEX 01 01:18:49
  TRACK 57 AUDIO
    TITLE "4:cjc005_1535"
    INDEX 01 01:19:05
  TRACK 58 AUDIO
    TITLE "0:"
    INDEX 01 01:20:22
  TRACK 59 AUDIO
    TITLE "5:cjc005_1536"
    INDEX 01 01:20:44
  TRACK 60 AUDIO
    TITLE "0:"
    INDEX 01 01:24:22
